<?xml version="1.0" standalone="no"?>
<!DOCTYPE svg PUBLIC "-//W3C//DTD SVG 20010904//EN"
 "http://www.w3.org/TR/2001/REC-SVG-20010904/DTD/svg10.dtd">
<svg version="1.0" xmlns="http://www.w3.org/2000/svg"
 width="50px" height="39px"  viewBox="0 0 111.000000 123.000000"
 preserveAspectRatio="xMidYMid meet">

<g transform="translate(0.000000,123.000000) scale(0.100000,-0.100000)"
fill="#000000" stroke="none">
<path d="M0 615 l0 -615 555 0 555 0 0 615 0 615 -555 0 -555 0 0 -615z m523
183 c6 -47 3 -58 -19 -58 -9 0 -14 11 -14 30 l0 30 -80 0 -80 0 0 -85 0 -85
70 0 c63 0 70 2 70 20 0 13 7 20 20 20 18 0 20 -7 20 -55 0 -48 -2 -55 -20
-55 -11 0 -20 7 -20 15 0 12 -14 15 -70 15 l-70 0 0 -79 c0 -75 1 -80 22 -83
13 -2 24 -11 26 -20 3 -16 -5 -18 -67 -18 -58 0 -71 3 -71 16 0 9 9 18 20 21
19 5 20 14 20 189 0 154 -2 184 -14 184 -18 0 -29 16 -21 30 4 6 61 10 139 10
l133 0 6 -42z m330 26 c23 -8 24 -94 2 -94 -9 0 -15 9 -15 23 0 35 -19 47 -76
47 -100 0 -155 -64 -161 -189 -4 -65 -1 -83 19 -121 31 -61 74 -77 169 -64 56
8 70 7 74 -5 3 -7 3 -16 1 -19 -3 -2 -45 -7 -93 -9 -78 -5 -94 -3 -132 16 -59
31 -85 88 -84 192 1 159 84 247 224 234 31 -2 63 -7 72 -11z"/>
</g>
</svg>
